<svg width="114" height="55" viewBox="0 0 114 55" fill="none" xmlns="http://www.w3.org/2000/svg">
<g clip-path="url(#clip0)">
<path d="M73.4002 29.3876L50.772 6.78615L43.9414 13.6079L66.5726 36.1972C67.0206 36.6454 67.5526 37.001 68.1386 37.2435C68.7243 37.4864 69.3524 37.6112 69.9865 37.6112C70.6207 37.6112 71.2485 37.4864 71.8342 37.2435C72.4202 37.001 72.9522 36.6454 73.4002 36.1972C74.3026 35.2933 74.8092 34.0687 74.8092 32.7924C74.8092 31.5159 74.3026 30.2915 73.4002 29.3876Z" fill="url(#paint0_linear)"/>
<path d="M56.4901 29.5193L24.1784 -2.74998L17.3477 4.07177L49.6595 36.341C50.5657 37.2449 51.7941 37.7528 53.0748 37.7528C54.3555 37.7528 55.5839 37.2449 56.4901 36.341C57.3953 35.436 57.9038 34.2092 57.9038 32.9302C57.9038 31.6511 57.3953 30.4244 56.4901 29.5193Z" fill="url(#paint1_linear)"/>
<path d="M64.9659 44.0165L42.3347 21.4152L35.5068 28.237L58.1471 50.8384C59.0533 51.7424 60.2817 52.25 61.5624 52.25C62.8432 52.25 64.0715 51.7424 64.9778 50.8384C65.4255 50.3896 65.7804 49.8572 66.0222 49.2715C66.264 48.686 66.3876 48.0584 66.3865 47.4248C66.3854 46.7915 66.2593 46.1645 66.0156 45.5796C65.7719 44.9949 65.415 44.4636 64.9659 44.0165Z" fill="url(#paint2_linear)"/>
</g>
<defs>
<linearGradient id="paint0_linear" x1="47.7962" y1="10.7438" x2="70.3619" y2="33.1172" gradientUnits="userSpaceOnUse">
<stop stop-color="#E8634E" stop-opacity="0"/>
<stop offset="1" stop-color="#E8463D"/>
</linearGradient>
<linearGradient id="paint1_linear" x1="25.5913" y1="5.63265" x2="56.1923" y2="35.869" gradientUnits="userSpaceOnUse">
<stop stop-color="#EE8156" stop-opacity="0"/>
<stop offset="1" stop-color="#FF7300"/>
</linearGradient>
<linearGradient id="paint2_linear" x1="39.3589" y1="25.3728" x2="61.9276" y2="47.7433" gradientUnits="userSpaceOnUse">
<stop stop-color="#EECD56" stop-opacity="0"/>
<stop offset="1" stop-color="#EEC834"/>
</linearGradient>
<clipPath id="clip0">
<rect width="114" height="55" fill="white"/>
</clipPath>
</defs>
</svg>
